# xmcd
# Track frame offsets:
# 14677
# 30014
# 46316
# 65516
# 79445
# 91614
# 103445
# 113731
# 126970
# 143272
# 158507
# 176754
# 192039
# 209296
# 227182
# 239368
# 253549
# 270663
# 282367
# 296432
# 308072
#
# Disc length: 4345 seconds
# Revision: 0
# Processed by: cddbd v1.4PL0 Copyright (c) Steve Scherf et al.
# Submitted via: VisiTrax 2.9.5.181 - For more info visit www.synapsa.com
#
DISCID=2b103615
DTITLE=Buffett, Jimmy - Jimmy Buffetts Best
DYEAR=2003
DGENRE=Country
TTITLE0=Jimmy Buffett - Fins
TTITLE1=Jimmy Buffett - Volcano
TTITLE2=Jimmy Buffett - Treat Her Like A Lady
TTITLE3=Jimmy Buffett - Stranded On A Sandbar
TTITLE4=Jimmy Buffett - Lady I Can't Explain
TTITLE5=Jimmy Buffett - Boat Drinks
TTITLE6=Jimmy Buffett - Dreamscile
TTITLE7=Jimmy Buffett - Coconut Telegraph
TTITLE8=Jimmy Buffett - Incommunicado
TTITLE9=Jimmy Buffett - Growing Older But Not Up
TTITLE10=Jimmy Buffett - The Weather Is Here
TTITLE11=Jimmy Buffett - The Good Fight
TTITLE12=Jimmy Buffett - Island
TTITLE13=Jimmy Buffett - Little Miss Magic
TTITLE14=Jimmy Buffett - Cliches
TTITLE15=Jimmy Buffett - Come Monday
TTITLE16=Jimmy Buffett - Midnight Not Famous
TTITLE17=Jimmy Buffett - My Head Hurt My Feet Stink And I Don't love Jesus
TTITLE18=Jimmy Buffett - This Hotel Room
TTITLE19=Jimmy Buffett - West Nashville Ballroom Gown
TTITLE20=Jimmy Buffett - Childs Song
EXTD=I Took these off various jimmy Buffett Albums
EXTT0=
EXTT1=
EXTT2=
EXTT3=
EXTT4=
EXTT5=
EXTT6=
EXTT7=
EXTT8=
EXTT9=
EXTT10=
EXTT11=
EXTT12=
EXTT13=
EXTT14=
EXTT15=
EXTT16=
EXTT17=
EXTT18=
EXTT19=
EXTT20=
PLAYORDER=
